<svg xmlns="http://www.w3.org/2000/svg" xmlns:xlink="http://www.w3.org/1999/xlink" viewBox="0 0 300 260"><defs><style>.cls-1{fill:none;}.cls-2{clip-path:url(#clip-path);}.cls-3{fill:#fff;}.cls-4{fill:#fefefe;}.cls-5{fill:#fdfefe;}.cls-6{fill:#fdfdfd;}.cls-7{fill:#fcfcfc;}.cls-8{fill:#fbfbfb;}.cls-9{fill:#fafbfb;}.cls-10{fill:#fafafa;}.cls-11{fill:#f9f9f9;}.cls-12{fill:#f8f8f8;}.cls-13{fill:#f7f7f7;}.cls-14{fill:#f6f7f7;}.cls-15{fill:#f6f6f6;}.cls-16{fill:#f5f5f6;}.cls-17{fill:#f5f5f5;}.cls-18{fill:#f4f4f4;}.cls-19{fill:#f3f4f4;}.cls-20{fill:#f3f3f3;}.cls-21{fill:#f2f2f3;}.cls-22{fill:#f1f2f2;}.cls-23{fill:#f0f1f1;}.cls-24{fill:#f0f0f0;}.cls-25{fill:#efeff0;}.cls-26{fill:#eeefef;}.cls-27{fill:#edeeee;}.cls-28{fill:#eceded;}.cls-29{fill:#ececed;}.cls-30{fill:#ebebec;}.cls-31{fill:#eaeaeb;}.cls-32{fill:#e9eaea;}.cls-33{fill:#e8e9e9;}.cls-34{fill:#e7e8e8;}.cls-35{fill:#e6e7e7;}.cls-36{fill:#e5e6e6;}.cls-37{fill:#e4e5e5;}.cls-38{fill:#e3e4e4;}.cls-39{fill:#e2e3e3;}.cls-40{fill:#e1e2e2;}.cls-41{fill:#e0e1e1;}.cls-42{fill:#dfe0e0;}.cls-43{fill:#dedfdf;}.cls-44{fill:#dddede;}.cls-45{fill:#dbdcdd;}.cls-46{fill:#dadbdc;}.cls-47{fill:#d9dadb;}.cls-48{fill:#d8d9da;}.cls-49{fill:#d7d8d9;}.cls-50{fill:#d5d7d7;}.cls-51{fill:#d4d5d6;}.cls-52{fill:#d3d4d5;}.cls-53{fill:#d2d3d4;}.cls-54{fill:#d0d2d3;}.cls-55{fill:#cfd0d1;}.cls-56{fill:#cecfd0;}.cls-57{fill:#cccecf;}.cls-58{fill:#cbcccd;}.cls-59{fill:#c9cbcc;}.cls-60{fill:#c8cacb;}.cls-61{fill:#c7c8c9;}.cls-62{fill:#c5c7c8;}.cls-63{fill:#c4c5c6;}.cls-64{fill:#c2c4c5;}.cls-65{fill:#c1c2c4;}.cls-66{fill:#bfc1c2;}.cls-67{fill:#bebfc1;}.cls-68{fill:#bcbebf;}.cls-69{fill:#babcbe;}.cls-70{fill:#b9bbbc;}.cls-71{fill:#b7b9bb;}.cls-72{fill:#b6b8b9;}.cls-73{fill:#b4b6b7;}.cls-74{fill:#b2b4b6;}.cls-75{fill:#b1b3b4;}.cls-76{fill:#afb1b3;}.cls-77{fill:#adafb1;}.cls-78{fill:#abaeaf;}.cls-79{fill:#aaacae;}.cls-80{fill:#a8aaac;}.cls-81{fill:#a6a9aa;}.cls-82{fill:#a4a7a8;}.cls-83{fill:#a2a5a7;}.cls-84{fill:#a1a3a5;}.cls-85{fill:#9fa1a3;}.cls-86{fill:#9da0a1;}.cls-87{fill:#9b9ea0;}.cls-88{fill:#999c9e;}.cls-89{fill:#979a9c;}.cls-90{fill:#95989a;}.cls-91{fill:url(#radial-gradient);}.cls-92{fill:url(#radial-gradient-2);}.cls-93{fill:url(#linear-gradient);}</style><clipPath id="clip-path"><path class="cls-1" d="M298.39,232.63c0,15.11-66.32,27.37-148.11,27.37S2.17,247.74,2.17,232.63s66.31-27.4,148.11-27.4S298.39,217.49,298.39,232.63Z"/></clipPath><radialGradient id="radial-gradient" cx="-765.81" cy="11751.86" r="200.84" gradientTransform="translate(715.22 -1372.75) scale(0.74 0.14)" gradientUnits="userSpaceOnUse"><stop offset="0" stop-color="#95989a"/><stop offset="0.02" stop-color="#999c9e" stop-opacity="0.96"/><stop offset="0.16" stop-color="#b8babb" stop-opacity="0.67"/><stop offset="0.3" stop-color="#d2d3d4" stop-opacity="0.43"/><stop offset="0.44" stop-color="#e5e6e7" stop-opacity="0.24"/><stop offset="0.58" stop-color="#f4f4f4" stop-opacity="0.11"/><stop offset="0.72" stop-color="#fcfcfc" stop-opacity="0.03"/><stop offset="0.85" stop-color="#fff" stop-opacity="0"/></radialGradient><radialGradient id="radial-gradient-2" cx="149.41" cy="115.08" r="113.08" gradientUnits="userSpaceOnUse"><stop offset="0.52" stop-color="#676f8e"/><stop offset="0.65" stop-color="#555c7b"/><stop offset="0.79" stop-color="#474e6d"/><stop offset="0.83" stop-color="#4c5472"/><stop offset="0.88" stop-color="#5b6482"/><stop offset="0.93" stop-color="#747e9c"/><stop offset="0.97" stop-color="#8e99b6"/></radialGradient><linearGradient id="linear-gradient" x1="63.84" y1="68.18" x2="223.27" y2="68.18" gradientUnits="userSpaceOnUse"><stop offset="0" stop-color="#8f9ab7"/><stop offset="0.77" stop-color="#525979"/></linearGradient></defs><title>grey_icon1Artboard 27</title><g id="icons_elements"><g class="cls-2"><rect class="cls-3" x="2.17" y="205.23" width="296.22" height="54.77"/><ellipse class="cls-3" cx="150.28" cy="232.62" rx="126.18" ry="23.31"/><ellipse class="cls-3" cx="150.28" cy="232.62" rx="124.99" ry="23.09"/><ellipse class="cls-3" cx="150.28" cy="232.62" rx="123.8" ry="22.87"/><ellipse class="cls-3" cx="150.28" cy="232.62" rx="122.61" ry="22.65"/><ellipse class="cls-3" cx="150.28" cy="232.62" rx="121.42" ry="22.43"/><ellipse class="cls-3" cx="150.28" cy="232.62" rx="120.23" ry="22.21"/><ellipse class="cls-3" cx="150.28" cy="232.62" rx="119.04" ry="21.99"/><ellipse class="cls-4" cx="150.28" cy="232.62" rx="117.85" ry="21.77"/><ellipse class="cls-4" cx="150.28" cy="232.62" rx="116.66" ry="21.55"/><ellipse class="cls-4" cx="150.28" cy="232.62" rx="115.47" ry="21.33"/><ellipse class="cls-4" cx="150.28" cy="232.62" rx="114.28" ry="21.11"/><ellipse class="cls-4" cx="150.28" cy="232.62" rx="113.09" ry="20.89"/><ellipse class="cls-5" cx="150.28" cy="232.62" rx="111.9" ry="20.67"/><ellipse class="cls-6" cx="150.28" cy="232.62" rx="110.71" ry="20.45"/><ellipse class="cls-6" cx="150.28" cy="232.62" rx="109.52" ry="20.23"/><ellipse class="cls-6" cx="150.28" cy="232.62" rx="108.33" ry="20.01"/><ellipse class="cls-7" cx="150.28" cy="232.62" rx="107.14" ry="19.79"/><ellipse class="cls-7" cx="150.28" cy="232.62" rx="105.95" ry="19.57"/><ellipse class="cls-7" cx="150.28" cy="232.62" rx="104.76" ry="19.35"/><ellipse class="cls-8" cx="150.28" cy="232.62" rx="103.57" ry="19.14"/><ellipse class="cls-8" cx="150.28" cy="232.62" rx="102.37" ry="18.92"/><ellipse class="cls-9" cx="150.28" cy="232.62" rx="101.18" ry="18.7"/><ellipse class="cls-10" cx="150.28" cy="232.62" rx="99.99" ry="18.48"/><ellipse class="cls-10" cx="150.28" cy="232.62" rx="98.8" ry="18.26"/><ellipse class="cls-11" cx="150.28" cy="232.62" rx="97.61" ry="18.04"/><ellipse class="cls-11" cx="150.28" cy="232.62" rx="96.42" ry="17.82"/><ellipse class="cls-12" cx="150.28" cy="232.62" rx="95.23" ry="17.6"/><ellipse class="cls-12" cx="150.28" cy="232.62" rx="94.04" ry="17.38"/><ellipse class="cls-13" cx="150.28" cy="232.62" rx="92.85" ry="17.16"/><ellipse class="cls-14" cx="150.28" cy="232.62" rx="91.66" ry="16.94"/><ellipse class="cls-15" cx="150.28" cy="232.62" rx="90.47" ry="16.72"/><ellipse class="cls-16" cx="150.28" cy="232.62" rx="89.28" ry="16.5"/><ellipse class="cls-17" cx="150.28" cy="232.62" rx="88.09" ry="16.28"/><ellipse class="cls-18" cx="150.28" cy="232.62" rx="86.9" ry="16.06"/><ellipse class="cls-19" cx="150.28" cy="232.62" rx="85.71" ry="15.84"/><ellipse class="cls-20" cx="150.28" cy="232.62" rx="84.52" ry="15.62"/><ellipse class="cls-21" cx="150.28" cy="232.62" rx="83.33" ry="15.4"/><ellipse class="cls-22" cx="150.28" cy="232.62" rx="82.14" ry="15.18"/><ellipse class="cls-23" cx="150.28" cy="232.62" rx="80.95" ry="14.96"/><ellipse class="cls-24" cx="150.28" cy="232.62" rx="79.76" ry="14.74"/><ellipse class="cls-25" cx="150.28" cy="232.62" rx="78.57" ry="14.52"/><ellipse class="cls-26" cx="150.28" cy="232.62" rx="77.38" ry="14.3"/><ellipse class="cls-27" cx="150.28" cy="232.62" rx="76.19" ry="14.08"/><ellipse class="cls-28" cx="150.28" cy="232.62" rx="75" ry="13.86"/><ellipse class="cls-29" cx="150.28" cy="232.62" rx="73.81" ry="13.64"/><ellipse class="cls-30" cx="150.28" cy="232.62" rx="72.61" ry="13.42"/><ellipse class="cls-31" cx="150.28" cy="232.62" rx="71.42" ry="13.2"/><ellipse class="cls-32" cx="150.28" cy="232.62" rx="70.23" ry="12.98"/><ellipse class="cls-33" cx="150.28" cy="232.62" rx="69.04" ry="12.76"/><ellipse class="cls-34" cx="150.28" cy="232.62" rx="67.85" ry="12.54"/><ellipse class="cls-35" cx="150.28" cy="232.62" rx="66.66" ry="12.32"/><ellipse class="cls-36" cx="150.28" cy="232.62" rx="65.47" ry="12.1"/><ellipse class="cls-37" cx="150.28" cy="232.62" rx="64.28" ry="11.88"/><ellipse class="cls-38" cx="150.28" cy="232.62" rx="63.09" ry="11.66"/><ellipse class="cls-39" cx="150.28" cy="232.62" rx="61.9" ry="11.44"/><ellipse class="cls-40" cx="150.28" cy="232.62" rx="60.71" ry="11.22"/><ellipse class="cls-41" cx="150.28" cy="232.62" rx="59.52" ry="11"/><ellipse class="cls-42" cx="150.28" cy="232.62" rx="58.33" ry="10.78"/><ellipse class="cls-43" cx="150.28" cy="232.62" rx="57.14" ry="10.56"/><ellipse class="cls-44" cx="150.28" cy="232.62" rx="55.95" ry="10.34"/><ellipse class="cls-45" cx="150.28" cy="232.62" rx="54.76" ry="10.12"/><ellipse class="cls-46" cx="150.28" cy="232.62" rx="53.57" ry="9.9"/><ellipse class="cls-47" cx="150.28" cy="232.62" rx="52.38" ry="9.68"/><ellipse class="cls-48" cx="150.28" cy="232.62" rx="51.19" ry="9.46"/><ellipse class="cls-49" cx="150.28" cy="232.62" rx="50" ry="9.24"/><ellipse class="cls-50" cx="150.28" cy="232.62" rx="48.81" ry="9.02"/><ellipse class="cls-51" cx="150.28" cy="232.62" rx="47.62" ry="8.8"/><ellipse class="cls-52" cx="150.28" cy="232.62" rx="46.43" ry="8.58"/><ellipse class="cls-53" cx="150.28" cy="232.62" rx="45.24" ry="8.36"/><ellipse class="cls-54" cx="150.28" cy="232.62" rx="44.04" ry="8.14"/><ellipse class="cls-55" cx="150.28" cy="232.62" rx="42.85" ry="7.92"/><ellipse class="cls-56" cx="150.28" cy="232.62" rx="41.66" ry="7.7"/><ellipse class="cls-57" cx="150.28" cy="232.62" rx="40.47" ry="7.48"/><ellipse class="cls-58" cx="150.28" cy="232.62" rx="39.28" ry="7.26"/><ellipse class="cls-59" cx="150.28" cy="232.62" rx="38.09" ry="7.04"/><ellipse class="cls-60" cx="150.28" cy="232.62" rx="36.9" ry="6.82"/><ellipse class="cls-61" cx="150.28" cy="232.62" rx="35.71" ry="6.6"/><ellipse class="cls-62" cx="150.28" cy="232.62" rx="34.52" ry="6.38"/><ellipse class="cls-63" cx="150.28" cy="232.62" rx="33.33" ry="6.16"/><ellipse class="cls-64" cx="150.28" cy="232.62" rx="32.14" ry="5.94"/><ellipse class="cls-65" cx="150.28" cy="232.62" rx="30.95" ry="5.72"/><ellipse class="cls-66" cx="150.28" cy="232.62" rx="29.76" ry="5.5"/><ellipse class="cls-67" cx="150.28" cy="232.62" rx="28.57" ry="5.28"/><ellipse class="cls-68" cx="150.28" cy="232.62" rx="27.38" ry="5.06"/><ellipse class="cls-69" cx="150.28" cy="232.62" rx="26.19" ry="4.84"/><ellipse class="cls-70" cx="150.28" cy="232.62" rx="25" ry="4.62"/><ellipse class="cls-71" cx="150.28" cy="232.62" rx="23.81" ry="4.4"/><ellipse class="cls-72" cx="150.28" cy="232.62" rx="22.62" ry="4.18"/><ellipse class="cls-73" cx="150.28" cy="232.62" rx="21.43" ry="3.96"/><ellipse class="cls-74" cx="150.28" cy="232.62" rx="20.24" ry="3.74"/><ellipse class="cls-75" cx="150.28" cy="232.62" rx="19.05" ry="3.52"/><ellipse class="cls-76" cx="150.28" cy="232.62" rx="17.86" ry="3.3"/><ellipse class="cls-77" cx="150.28" cy="232.62" rx="16.67" ry="3.08"/><ellipse class="cls-78" cx="150.28" cy="232.62" rx="15.48" ry="2.86"/><ellipse class="cls-79" cx="150.28" cy="232.62" rx="14.28" ry="2.64"/><ellipse class="cls-80" cx="150.28" cy="232.62" rx="13.09" ry="2.42"/><ellipse class="cls-81" cx="150.28" cy="232.62" rx="11.9" ry="2.2"/><ellipse class="cls-82" cx="150.28" cy="232.62" rx="10.71" ry="1.98"/><ellipse class="cls-83" cx="150.28" cy="232.62" rx="9.52" ry="1.76"/><ellipse class="cls-84" cx="150.28" cy="232.62" rx="8.33" ry="1.54"/><ellipse class="cls-85" cx="150.28" cy="232.62" rx="7.14" ry="1.32"/><ellipse class="cls-86" cx="150.28" cy="232.62" rx="5.95" ry="1.1"/><ellipse class="cls-87" cx="150.28" cy="232.62" rx="4.76" ry="0.88"/><ellipse class="cls-88" cx="150.28" cy="232.62" rx="3.57" ry="0.66"/><ellipse class="cls-89" cx="150.28" cy="232.62" rx="2.38" ry="0.44"/><ellipse class="cls-90" cx="150.28" cy="232.62" rx="1.19" ry="0.22"/></g><path class="cls-3" d="M222.53,128.93a2,2,0,0,0-2.78.56l-3.34,5a2,2,0,0,0,.56,2.77,2,2,0,0,0,2.78-.56l3.34-5.05A2,2,0,0,0,222.53,128.93Z"/><path class="cls-3" d="M211.63,124.61l-3.34,5a2,2,0,0,0,3.34,2.21l3.34-5.05a2,2,0,0,0-.56-2.77A2,2,0,0,0,211.63,124.61Z"/><path class="cls-3" d="M204.25,131.08c-1.85-.23-2.5.19-2.78.57-.73,1,.67,2.63,0,4.91a5,5,0,0,1-.81,1.65l-1.52,2.61a5.79,5.79,0,0,0-.71,4.26,5.69,5.69,0,0,0,1.58,2.78A61.72,61.72,0,0,1,88.33,111.68c0-37,33.58-61.32,61.71-61.72,21.1-.3,36.63,12.88,39.84,15.61C201,75,209.83,89.33,207.06,95a12.28,12.28,0,0,1-1.64,2.45,13.83,13.83,0,0,1-4.09,3.28,17.11,17.11,0,0,1-5.72,1.63,42.58,42.58,0,0,1-7,.63,8.62,8.62,0,0,0-1.35,0,9.9,9.9,0,0,0-2,.5,7.08,7.08,0,0,0-3.63,2.85,6.85,6.85,0,0,0-.26,5.71,32.3,32.3,0,0,1,2.45,28H171.88v-3.79a3.69,3.69,0,0,0-2.49-3.47,4.54,4.54,0,0,0-2.11-.52H135.46a4.49,4.49,0,0,0-4.48,4.48h0a1.55,1.55,0,0,0,0,.22s0,.07,0,.11v3h-12a40.28,40.28,0,0,1,4.68-35.28v-.16a30.87,30.87,0,0,1,.82-9.66,31.25,31.25,0,0,1,1.71-5.22,18.61,18.61,0,0,1,4-5.42s.55-.46,1.17-.88c4.95-3.33,20.92-3.21,20.92-3.21,11.66.1,15.24,0,18.81,2.46a17,17,0,0,1,4.1,4.09,15.05,15.05,0,0,1,2.48,7.47,4.1,4.1,0,0,0,5.31,2.3c1.74-.69,2.75-2.94,2.3-5.31a21.45,21.45,0,0,0-2.73-6.92,20.54,20.54,0,0,0-3.16-3.87,23.37,23.37,0,0,0-1.74-1.76c-.14-.12-.3-.26-.53-.44a9.11,9.11,0,0,0-1.26-.84,31.35,31.35,0,0,0-6.4-2.9c-7.35-2.32-21.27-1.64-21.27-1.64a64.51,64.51,0,0,0-13.09,1.64c-7.61,1.91-10.25,4.37-11.46,5.72A15.83,15.83,0,0,0,122.28,82c-2.62,3.17-4.38,7.7-5.21,9.72a31.17,31.17,0,0,0-1.75,5.74,3.22,3.22,0,0,0-.7.14,14.88,14.88,0,0,0-2.25-.17c-5.2,0-9.41,2.63-9.41,5.87,0,2.89,3.35,5.29,7.76,5.78l0,.15c-.94,3.94-1.44,5.1-2,7.26-1.17,4.92-.88,8.7-.39,15a51.25,51.25,0,0,0,3.81,15,4.36,4.36,0,0,0,1.17,1.58,4.47,4.47,0,0,0,2.3,1h18.23a4.26,4.26,0,0,0,.8-.08h0a3.68,3.68,0,0,0,3.68-3.68v-4h26.18v3.18s0,.08,0,.11a4.49,4.49,0,0,0,4.49,4.49h16.4a4.46,4.46,0,0,0,3.47-1.66,10.89,10.89,0,0,0,1.5-2.24,40,40,0,0,0,4-12.55,31,31,0,0,0-.39-13.23c-.51-1.9-1-2.92-1.94-6.39l-.23-.86c1.59-.3,3.59-.74,5.87-1.38a39,39,0,0,0,7.72-2.67c2.58-1.31,6.72-3.41,9-8.18s1.32-9.16.82-11.46a12.38,12.38,0,0,0-.93-2.8l0-.09a69.54,69.54,0,1,0-7.59,66.6,5.63,5.63,0,0,0,7.71-1.84l2.13-3.41a1.82,1.82,0,0,1,.31-.57c1.12-1.48,3.62-.59,4.34-1.61.27-.38.36-1.12-.56-2.78Z"/><path class="cls-3" d="M158,100.75c-8.13,1.93-13.51,6.08-17.05,8.82a48,48,0,0,0-12.18,14.37,39.27,39.27,0,0,1,13.69-12.56,40.62,40.62,0,0,1,14.73-4.91c7.58-.82,8.18-.82,8.18-.82,3.38,0,5.52.51,6.54-.81a3.12,3.12,0,0,0,0-3.28C169.72,98,159.74,100.33,158,100.75Z"/><path class="cls-91" d="M298.39,229.05c0,15.1-66.32,27.37-148.11,27.37S2.17,244.15,2.17,229.05s66.31-27.4,148.11-27.4S298.39,213.9,298.39,229.05Z"/><path class="cls-92" d="M262.49,115A113.08,113.08,0,1,1,149.42,2,113.13,113.13,0,0,1,262.49,115Z"/><path class="cls-93" d="M153.32,9.71A111,111,0,0,0,133,11.62C89.35,19.78,58.73,51.75,64.55,83c4.9,26.26,34.09,43.66,69.22,43.66a110.37,110.37,0,0,0,20.36-1.91c43.64-8.15,74.26-40.08,68.43-71.31C217.66,27.15,188.48,9.71,153.32,9.71Z"/><path class="cls-3" d="M142.66,149.3a23.22,23.22,0,1,0-23.22-23.21A23.24,23.24,0,0,0,142.66,149.3Zm0-42.29a19.07,19.07,0,1,1-19.07,19.08A19.1,19.1,0,0,1,142.66,107Z"/><path class="cls-3" d="M94.25,85.05H86.62v7.62H79V159.5H206.32v-7.62H214v-7.63h7.62V77.41H94.25Zm2.67,11.78a16,16,0,0,1-13.76,13.75V96.83Zm105.24,13.75A16,16,0,0,1,188.4,96.83h13.76ZM184.21,96.83a20.19,20.19,0,0,0,17.95,18V137.4a20.18,20.18,0,0,0-17.95,17.95h-83.1a20.17,20.17,0,0,0-18-17.95V114.78a20.18,20.18,0,0,0,18-18ZM83.16,141.59a16,16,0,0,1,13.76,13.76H83.16ZM188.4,155.35a16,16,0,0,1,13.76-13.76v13.76Zm21.39-7.64h-3.47v-55H90.78V89.2h119Zm7.63-66.14v58.52H214v-55H98.4V81.57Z"/></g></svg>