<svg xmlns="http://www.w3.org/2000/svg" xmlns:xlink="http://www.w3.org/1999/xlink" viewBox="0 0 300 260"><defs><style>.cls-1{fill:none;}.cls-2{fill:#fff;}.cls-3{clip-path:url(#clip-path);}.cls-4{fill:#fefefe;}.cls-5{fill:#fdfefe;}.cls-6{fill:#fdfdfd;}.cls-7{fill:#fcfcfc;}.cls-8{fill:#fbfbfb;}.cls-9{fill:#fafbfb;}.cls-10{fill:#fafafa;}.cls-11{fill:#f9f9f9;}.cls-12{fill:#f8f8f8;}.cls-13{fill:#f7f7f7;}.cls-14{fill:#f6f7f7;}.cls-15{fill:#f6f6f6;}.cls-16{fill:#f5f5f6;}.cls-17{fill:#f5f5f5;}.cls-18{fill:#f4f4f4;}.cls-19{fill:#f3f4f4;}.cls-20{fill:#f3f3f3;}.cls-21{fill:#f2f2f3;}.cls-22{fill:#f1f2f2;}.cls-23{fill:#f0f1f1;}.cls-24{fill:#f0f0f0;}.cls-25{fill:#efeff0;}.cls-26{fill:#eeefef;}.cls-27{fill:#edeeee;}.cls-28{fill:#eceded;}.cls-29{fill:#ececed;}.cls-30{fill:#ebebec;}.cls-31{fill:#eaeaeb;}.cls-32{fill:#e9eaea;}.cls-33{fill:#e8e9e9;}.cls-34{fill:#e7e8e8;}.cls-35{fill:#e6e7e7;}.cls-36{fill:#e5e6e6;}.cls-37{fill:#e4e5e5;}.cls-38{fill:#e3e4e4;}.cls-39{fill:#e2e3e3;}.cls-40{fill:#e1e2e2;}.cls-41{fill:#e0e1e1;}.cls-42{fill:#dfe0e0;}.cls-43{fill:#dedfdf;}.cls-44{fill:#dddede;}.cls-45{fill:#dbdcdd;}.cls-46{fill:#dadbdc;}.cls-47{fill:#d9dadb;}.cls-48{fill:#d8d9da;}.cls-49{fill:#d7d8d9;}.cls-50{fill:#d5d7d7;}.cls-51{fill:#d4d5d6;}.cls-52{fill:#d3d4d5;}.cls-53{fill:#d2d3d4;}.cls-54{fill:#d0d2d3;}.cls-55{fill:#cfd0d1;}.cls-56{fill:#cecfd0;}.cls-57{fill:#cccecf;}.cls-58{fill:#cbcccd;}.cls-59{fill:#c9cbcc;}.cls-60{fill:#c8cacb;}.cls-61{fill:#c7c8c9;}.cls-62{fill:#c5c7c8;}.cls-63{fill:#c4c5c6;}.cls-64{fill:#c2c4c5;}.cls-65{fill:#c1c2c4;}.cls-66{fill:#bfc1c2;}.cls-67{fill:#bebfc1;}.cls-68{fill:#bcbebf;}.cls-69{fill:#babcbe;}.cls-70{fill:#b9bbbc;}.cls-71{fill:#b7b9bb;}.cls-72{fill:#b6b8b9;}.cls-73{fill:#b4b6b7;}.cls-74{fill:#b2b4b6;}.cls-75{fill:#b1b3b4;}.cls-76{fill:#afb1b3;}.cls-77{fill:#adafb1;}.cls-78{fill:#abaeaf;}.cls-79{fill:#aaacae;}.cls-80{fill:#a8aaac;}.cls-81{fill:#a6a9aa;}.cls-82{fill:#a4a7a8;}.cls-83{fill:#a2a5a7;}.cls-84{fill:#a1a3a5;}.cls-85{fill:#9fa1a3;}.cls-86{fill:#9da0a1;}.cls-87{fill:#9b9ea0;}.cls-88{fill:#999c9e;}.cls-89{fill:#979a9c;}.cls-90{fill:#95989a;}.cls-91{fill:url(#radial-gradient);}.cls-92{fill:url(#linear-gradient);}</style><clipPath id="clip-path"><path class="cls-1" d="M300,230.43c0,15.3-67.17,27.72-150,27.72S0,245.73,0,230.43s67.15-27.75,150-27.75S300,215.09,300,230.43Z"/></clipPath><radialGradient id="radial-gradient" cx="149.11" cy="115" r="114.52" gradientUnits="userSpaceOnUse"><stop offset="0.52" stop-color="#676f8e"/><stop offset="0.65" stop-color="#555c7b"/><stop offset="0.79" stop-color="#474e6d"/><stop offset="0.83" stop-color="#4c5472"/><stop offset="0.88" stop-color="#5b6482"/><stop offset="0.93" stop-color="#747e9c"/><stop offset="0.97" stop-color="#8e99b6"/></radialGradient><linearGradient id="linear-gradient" x1="62.45" y1="67.51" x2="223.92" y2="67.51" gradientUnits="userSpaceOnUse"><stop offset="0" stop-color="#8f9ab7"/><stop offset="0.77" stop-color="#525979"/></linearGradient></defs><title>grey_icon1Artboard 27 copy 2</title><g id="icons_elements"><path class="cls-2" d="M223.16,129a2,2,0,0,0-2.81.57L217,134.71a2,2,0,0,0,3.38,2.24l3.38-5.11A2,2,0,0,0,223.16,129Z"/><path class="cls-2" d="M212.13,124.66l-3.38,5.11a2,2,0,0,0,3.38,2.24l3.39-5.11a2,2,0,0,0-3.39-2.24Z"/><path class="cls-2" d="M204.65,131.22c-1.87-.24-2.53.18-2.81.57-.74,1,.68,2.66,0,5a5.11,5.11,0,0,1-.82,1.68c-.52.88-1,1.76-1.54,2.64a5.84,5.84,0,0,0-.72,4.31,5.74,5.74,0,0,0,1.6,2.81A62.51,62.51,0,0,1,87.25,111.57c0-37.5,34-62.1,62.5-62.51,21.37-.3,37.1,13,40.35,15.8,11.25,9.55,20.21,24.07,17.4,29.83a13.16,13.16,0,0,1-1.66,2.49,14.09,14.09,0,0,1-4.14,3.31,17.52,17.52,0,0,1-5.8,1.66,42.54,42.54,0,0,1-7.08.63,8,8,0,0,0-1.36,0,9.38,9.38,0,0,0-2.05.5,7.12,7.12,0,0,0-3.67,2.89,6.9,6.9,0,0,0-.27,5.78A32.69,32.69,0,0,1,184,140.37H171.87v-3.84a3.72,3.72,0,0,0-2.52-3.51,4.55,4.55,0,0,0-2.14-.53H135a4.54,4.54,0,0,0-4.54,4.54h0a1.62,1.62,0,0,0,0,.22s0,.07,0,.11v3h-12.2A40.78,40.78,0,0,1,123,104.63a.92.92,0,0,0,0-.15,31.58,31.58,0,0,1,.84-9.79,30.45,30.45,0,0,1,1.73-5.28,18.41,18.41,0,0,1,4.07-5.49s.56-.47,1.18-.89c5-3.38,21.19-3.25,21.19-3.25,11.81.09,15.43,0,19.06,2.48a17.21,17.21,0,0,1,4.14,4.15A15.39,15.39,0,0,1,177.71,94a4.15,4.15,0,0,0,5.38,2.32c1.75-.7,2.78-3,2.32-5.38a21.31,21.31,0,0,0-2.77-7,20.37,20.37,0,0,0-3.2-3.92,19.64,19.64,0,0,0-1.76-1.79c-.14-.12-.3-.26-.53-.44a9.34,9.34,0,0,0-1.28-.85A31.83,31.83,0,0,0,169.39,74c-7.45-2.35-21.54-1.66-21.54-1.66A66.24,66.24,0,0,0,134.59,74c-7.71,1.94-10.38,4.43-11.6,5.8a15.49,15.49,0,0,0-1.36,1.76c-2.65,3.21-4.42,7.8-5.27,9.84a32.16,32.16,0,0,0-1.77,5.81,2.81,2.81,0,0,0-.71.15,14,14,0,0,0-2.28-.18c-5.26,0-9.53,2.66-9.53,6,0,2.93,3.4,5.36,7.86,5.85l0,.15c-1,4-1.45,5.17-2,7.35-1.18,5-.9,8.82-.4,15.24a52,52,0,0,0,3.86,15.19,4.45,4.45,0,0,0,1.18,1.6,4.52,4.52,0,0,0,2.33,1h18.46a4.28,4.28,0,0,0,.81-.08h0a3.72,3.72,0,0,0,3.73-3.72v-4.08h26.52v3.22s0,.08,0,.12a4.54,4.54,0,0,0,4.54,4.54h16.61a4.53,4.53,0,0,0,3.52-1.67,11.46,11.46,0,0,0,1.52-2.28,40.45,40.45,0,0,0,4.07-12.71,31.64,31.64,0,0,0-.39-13.4c-.52-1.92-1-3-2-6.47-.08-.29-.16-.58-.23-.86,1.61-.32,3.63-.76,5.94-1.4a40.18,40.18,0,0,0,7.82-2.71c2.61-1.33,6.8-3.46,9.12-8.29s1.33-9.28.83-11.6a12.47,12.47,0,0,0-.94-2.83l0-.1a70.43,70.43,0,1,0-7.68,67.45,5.71,5.71,0,0,0,7.81-1.86l2.15-3.46a2.2,2.2,0,0,1,.31-.57c1.14-1.5,3.67-.6,4.4-1.63.27-.39.37-1.14-.57-2.82Z"/><path class="cls-2" d="M157.79,100.49c-8.24,2-13.69,6.16-17.28,8.93A48.79,48.79,0,0,0,128.18,124a39.74,39.74,0,0,1,13.87-12.72,41.13,41.13,0,0,1,14.91-5c7.68-.83,8.29-.83,8.29-.83,3.42,0,5.59.51,6.62-.83a3.13,3.13,0,0,0,0-3.31C169.68,97.67,159.58,100.07,157.79,100.49Z"/><g class="cls-3"><rect class="cls-2" y="202.68" width="300" height="55.47"/><ellipse class="cls-2" cx="150" cy="230.41" rx="127.79" ry="23.61"/><ellipse class="cls-2" cx="150" cy="230.41" rx="126.59" ry="23.39"/><ellipse class="cls-2" cx="150" cy="230.41" rx="125.38" ry="23.17"/><ellipse class="cls-2" cx="150" cy="230.41" rx="124.18" ry="22.94"/><ellipse class="cls-2" cx="150" cy="230.41" rx="122.97" ry="22.72"/><ellipse class="cls-2" cx="150" cy="230.41" rx="121.77" ry="22.5"/><ellipse class="cls-2" cx="150" cy="230.41" rx="120.56" ry="22.27"/><ellipse class="cls-4" cx="150" cy="230.41" rx="119.35" ry="22.05"/><ellipse class="cls-4" cx="150" cy="230.41" rx="118.15" ry="21.83"/><ellipse class="cls-4" cx="150" cy="230.41" rx="116.94" ry="21.61"/><ellipse class="cls-4" cx="150" cy="230.41" rx="115.74" ry="21.38"/><ellipse class="cls-4" cx="150" cy="230.41" rx="114.53" ry="21.16"/><ellipse class="cls-5" cx="150" cy="230.41" rx="113.33" ry="20.94"/><ellipse class="cls-6" cx="150" cy="230.41" rx="112.12" ry="20.72"/><ellipse class="cls-6" cx="150" cy="230.41" rx="110.91" ry="20.49"/><ellipse class="cls-6" cx="150" cy="230.41" rx="109.71" ry="20.27"/><ellipse class="cls-7" cx="150" cy="230.41" rx="108.5" ry="20.05"/><ellipse class="cls-7" cx="150" cy="230.41" rx="107.3" ry="19.82"/><ellipse class="cls-7" cx="150" cy="230.41" rx="106.09" ry="19.6"/><ellipse class="cls-8" cx="150" cy="230.41" rx="104.89" ry="19.38"/><ellipse class="cls-8" cx="150" cy="230.41" rx="103.68" ry="19.16"/><ellipse class="cls-9" cx="150" cy="230.41" rx="102.48" ry="18.93"/><ellipse class="cls-10" cx="150" cy="230.41" rx="101.27" ry="18.71"/><ellipse class="cls-10" cx="150" cy="230.41" rx="100.06" ry="18.49"/><ellipse class="cls-11" cx="150" cy="230.41" rx="98.86" ry="18.27"/><ellipse class="cls-11" cx="150" cy="230.41" rx="97.65" ry="18.04"/><ellipse class="cls-12" cx="150" cy="230.41" rx="96.45" ry="17.82"/><ellipse class="cls-12" cx="150" cy="230.41" rx="95.24" ry="17.6"/><ellipse class="cls-13" cx="150" cy="230.41" rx="94.04" ry="17.37"/><ellipse class="cls-14" cx="150" cy="230.41" rx="92.83" ry="17.15"/><ellipse class="cls-15" cx="150" cy="230.41" rx="91.63" ry="16.93"/><ellipse class="cls-16" cx="150" cy="230.41" rx="90.42" ry="16.71"/><ellipse class="cls-17" cx="150" cy="230.41" rx="89.21" ry="16.48"/><ellipse class="cls-18" cx="150" cy="230.41" rx="88.01" ry="16.26"/><ellipse class="cls-19" cx="150" cy="230.41" rx="86.8" ry="16.04"/><ellipse class="cls-20" cx="150" cy="230.41" rx="85.6" ry="15.82"/><ellipse class="cls-21" cx="150" cy="230.41" rx="84.39" ry="15.59"/><ellipse class="cls-22" cx="150" cy="230.41" rx="83.19" ry="15.37"/><ellipse class="cls-23" cx="150" cy="230.41" rx="81.98" ry="15.15"/><ellipse class="cls-24" cx="150" cy="230.41" rx="80.77" ry="14.92"/><ellipse class="cls-25" cx="150" cy="230.41" rx="79.57" ry="14.7"/><ellipse class="cls-26" cx="150" cy="230.41" rx="78.36" ry="14.48"/><ellipse class="cls-27" cx="150" cy="230.41" rx="77.16" ry="14.26"/><ellipse class="cls-28" cx="150" cy="230.41" rx="75.95" ry="14.03"/><ellipse class="cls-29" cx="150" cy="230.41" rx="74.75" ry="13.81"/><ellipse class="cls-30" cx="150" cy="230.41" rx="73.54" ry="13.59"/><ellipse class="cls-31" cx="150" cy="230.41" rx="72.34" ry="13.36"/><ellipse class="cls-32" cx="150" cy="230.41" rx="71.13" ry="13.14"/><ellipse class="cls-33" cx="150" cy="230.41" rx="69.92" ry="12.92"/><ellipse class="cls-34" cx="150" cy="230.41" rx="68.72" ry="12.7"/><ellipse class="cls-35" cx="150" cy="230.41" rx="67.51" ry="12.47"/><ellipse class="cls-36" cx="150" cy="230.41" rx="66.31" ry="12.25"/><ellipse class="cls-37" cx="150" cy="230.41" rx="65.1" ry="12.03"/><ellipse class="cls-38" cx="150" cy="230.41" rx="63.9" ry="11.81"/><ellipse class="cls-39" cx="150" cy="230.41" rx="62.69" ry="11.58"/><ellipse class="cls-40" cx="150" cy="230.41" rx="61.49" ry="11.36"/><ellipse class="cls-41" cx="150" cy="230.41" rx="60.28" ry="11.14"/><ellipse class="cls-42" cx="150" cy="230.41" rx="59.07" ry="10.91"/><ellipse class="cls-43" cx="150" cy="230.41" rx="57.87" ry="10.69"/><ellipse class="cls-44" cx="150" cy="230.41" rx="56.66" ry="10.47"/><ellipse class="cls-45" cx="150" cy="230.41" rx="55.46" ry="10.25"/><ellipse class="cls-46" cx="150" cy="230.41" rx="54.25" ry="10.02"/><ellipse class="cls-47" cx="150" cy="230.41" rx="53.05" ry="9.8"/><ellipse class="cls-48" cx="150" cy="230.41" rx="51.84" ry="9.58"/><ellipse class="cls-49" cx="150" cy="230.41" rx="50.63" ry="9.36"/><ellipse class="cls-50" cx="150" cy="230.41" rx="49.43" ry="9.13"/><ellipse class="cls-51" cx="150" cy="230.41" rx="48.22" ry="8.91"/><ellipse class="cls-52" cx="150" cy="230.41" rx="47.02" ry="8.69"/><ellipse class="cls-53" cx="150" cy="230.41" rx="45.81" ry="8.46"/><ellipse class="cls-54" cx="150" cy="230.41" rx="44.61" ry="8.24"/><ellipse class="cls-55" cx="150" cy="230.41" rx="43.4" ry="8.02"/><ellipse class="cls-56" cx="150" cy="230.41" rx="42.2" ry="7.8"/><ellipse class="cls-57" cx="150" cy="230.41" rx="40.99" ry="7.57"/><ellipse class="cls-58" cx="150" cy="230.41" rx="39.78" ry="7.35"/><ellipse class="cls-59" cx="150" cy="230.41" rx="38.58" ry="7.13"/><ellipse class="cls-60" cx="150" cy="230.41" rx="37.37" ry="6.91"/><ellipse class="cls-61" cx="150" cy="230.41" rx="36.17" ry="6.68"/><ellipse class="cls-62" cx="150" cy="230.41" rx="34.96" ry="6.46"/><ellipse class="cls-63" cx="150" cy="230.41" rx="33.76" ry="6.24"/><ellipse class="cls-64" cx="150" cy="230.41" rx="32.55" ry="6.01"/><ellipse class="cls-65" cx="150" cy="230.41" rx="31.35" ry="5.79"/><ellipse class="cls-66" cx="150" cy="230.41" rx="30.14" ry="5.57"/><ellipse class="cls-67" cx="150" cy="230.41" rx="28.93" ry="5.35"/><ellipse class="cls-68" cx="150" cy="230.41" rx="27.73" ry="5.12"/><ellipse class="cls-69" cx="150" cy="230.41" rx="26.52" ry="4.9"/><ellipse class="cls-70" cx="150" cy="230.41" rx="25.32" ry="4.68"/><ellipse class="cls-71" cx="150" cy="230.41" rx="24.11" ry="4.45"/><ellipse class="cls-72" cx="150" cy="230.41" rx="22.91" ry="4.23"/><ellipse class="cls-73" cx="150" cy="230.41" rx="21.7" ry="4.01"/><ellipse class="cls-74" cx="150" cy="230.41" rx="20.5" ry="3.79"/><ellipse class="cls-75" cx="150" cy="230.41" rx="19.29" ry="3.56"/><ellipse class="cls-76" cx="150" cy="230.41" rx="18.08" ry="3.34"/><ellipse class="cls-77" cx="150" cy="230.41" rx="16.88" ry="3.12"/><ellipse class="cls-78" cx="150" cy="230.41" rx="15.67" ry="2.9"/><ellipse class="cls-79" cx="150" cy="230.41" rx="14.47" ry="2.67"/><ellipse class="cls-80" cx="150" cy="230.41" rx="13.26" ry="2.45"/><ellipse class="cls-81" cx="150" cy="230.41" rx="12.06" ry="2.23"/><ellipse class="cls-82" cx="150" cy="230.41" rx="10.85" ry="2"/><ellipse class="cls-83" cx="150" cy="230.41" rx="9.64" ry="1.78"/><ellipse class="cls-84" cx="150" cy="230.41" rx="8.44" ry="1.56"/><ellipse class="cls-85" cx="150" cy="230.41" rx="7.23" ry="1.34"/><ellipse class="cls-86" cx="150" cy="230.41" rx="6.03" ry="1.11"/><ellipse class="cls-87" cx="150" cy="230.41" rx="4.82" ry="0.89"/><ellipse class="cls-88" cx="150" cy="230.41" rx="3.62" ry="0.67"/><ellipse class="cls-89" cx="150" cy="230.41" rx="2.41" ry="0.45"/><ellipse class="cls-90" cx="150" cy="230.41" rx="1.21" ry="0.22"/></g><path class="cls-91" d="M263.64,115A114.53,114.53,0,1,1,149.12.48,114.57,114.57,0,0,1,263.64,115Z"/><path class="cls-92" d="M153.07,8.29a112.1,112.1,0,0,0-20.59,1.94C88.29,18.49,57.27,50.87,63.17,82.51c5,26.6,34.52,44.22,70.1,44.22a113.3,113.3,0,0,0,20.63-1.93c44.19-8.26,75.2-40.6,69.3-72.23C218.23,26,188.68,8.29,153.07,8.29Z"/><polygon class="cls-2" points="189.87 75.69 208.2 75.69 208.2 166.81 91.31 166.81 91.31 75.69 109.91 75.69 109.91 72.5 88.12 72.5 88.12 170 211.38 170 211.38 72.5 189.87 72.5 189.87 75.69"/><polyline class="cls-2" points="121.86 75.69 178.18 75.69 178.18 72.5 121.86 72.5"/><path class="cls-2" d="M109.35,80.78a6.85,6.85,0,0,0-.56,2.69,7,7,0,1,0,14,0,6.77,6.77,0,0,0-.55-2.69,1.49,1.49,0,0,0-2.75,1.16A4,4,0,0,1,113,86.32a4.09,4.09,0,0,1-1.18-2.85,4,4,0,0,1,.32-1.53,1.49,1.49,0,1,0-2.74-1.16Z"/><path class="cls-2" d="M117.3,83.38V70.45a1.5,1.5,0,0,0-3,0V83.38a1.5,1.5,0,0,0,3,0"/><path class="cls-2" d="M187.66,81.94a4.19,4.19,0,0,1,.32,1.53,4,4,0,0,1-1.18,2.85,4,4,0,0,1-6.56-4.38,1.49,1.49,0,0,0-2.75-1.16,6.84,6.84,0,0,0-.55,2.69,7,7,0,1,0,14,0,6.77,6.77,0,0,0-.56-2.69,1.49,1.49,0,1,0-2.74,1.16Z"/><path class="cls-2" d="M185.44,83.38V70.45a1.49,1.49,0,0,0-3,0V83.38a1.49,1.49,0,0,0,3,0"/><path class="cls-2" d="M115.61,111.92v-1.28H105.7a1.28,1.28,0,0,0-1.28,1.28v9.91a1.25,1.25,0,0,0,.38.9,1.27,1.27,0,0,0,.9.38h9.91a1.26,1.26,0,0,0,.9-.38,1.29,1.29,0,0,0,.38-.9v-9.91a1.3,1.3,0,0,0-.38-.91,1.25,1.25,0,0,0-.9-.37v1.28h-1.28v8.62H107V113.2h8.63v-1.28h0Z"/><path class="cls-2" d="M134.89,111.92v-1.28H125a1.28,1.28,0,0,0-1.29,1.28v9.91a1.3,1.3,0,0,0,1.29,1.28h9.9a1.3,1.3,0,0,0,.91-.38,1.28,1.28,0,0,0,.37-.9v-9.91a1.26,1.26,0,0,0-1.28-1.28v1.28h-1.28v8.62h-7.34V113.2h8.62v-1.28h0Z"/><path class="cls-2" d="M154.18,111.92v-1.28h-9.91a1.26,1.26,0,0,0-.9.37,1.3,1.3,0,0,0-.38.91v9.91a1.29,1.29,0,0,0,.38.9,1.27,1.27,0,0,0,.9.38h9.91a1.26,1.26,0,0,0,.9-.38,1.29,1.29,0,0,0,.38-.9v-9.91a1.3,1.3,0,0,0-.38-.91,1.25,1.25,0,0,0-.9-.37v1.28H152.9v8.62h-7.35V113.2h8.63v-1.28h0Z"/><path class="cls-2" d="M173.46,111.92v-1.28h-9.9a1.26,1.26,0,0,0-1.28,1.28v9.91a1.28,1.28,0,0,0,.37.9,1.3,1.3,0,0,0,.91.38h9.9a1.3,1.3,0,0,0,1.29-1.28v-9.91a1.28,1.28,0,0,0-1.29-1.28v1.28h-1.28v8.62h-7.34V113.2h8.62v-1.28h0Z"/><path class="cls-2" d="M192.75,111.92v-1.28h-9.91a1.29,1.29,0,0,0-.91.37,1.33,1.33,0,0,0-.37.91v9.91a1.32,1.32,0,0,0,.37.9,1.3,1.3,0,0,0,.91.38h9.91a1.3,1.3,0,0,0,.91-.38,1.28,1.28,0,0,0,.37-.9v-9.91a1.26,1.26,0,0,0-1.28-1.28v1.28h-1.28v8.62h-7.34V113.2h8.62v-1.28h0Z"/><path class="cls-2" d="M115.61,129.3V128H105.7a1.3,1.3,0,0,0-1.28,1.28v9.91a1.28,1.28,0,0,0,1.28,1.28h9.91a1.25,1.25,0,0,0,.9-.37,1.3,1.3,0,0,0,.38-.91V129.3a1.27,1.27,0,0,0-.38-.9,1.22,1.22,0,0,0-.9-.38v1.28h-1.28v8.63H107v-7.35h8.63V129.3h0Z"/><path class="cls-2" d="M134.89,129.3V128H125a1.25,1.25,0,0,0-.91.38,1.27,1.27,0,0,0-.38.9v9.91a1.28,1.28,0,0,0,1.29,1.28h9.9a1.26,1.26,0,0,0,1.28-1.28V129.3a1.28,1.28,0,0,0-1.28-1.28v1.28h-1.28v8.63h-7.34v-7.35h8.62V129.3h0Z"/><path class="cls-2" d="M154.17,129.3V128h-9.9a1.23,1.23,0,0,0-.9.38,1.27,1.27,0,0,0-.38.9v9.91a1.3,1.3,0,0,0,.38.91,1.26,1.26,0,0,0,.9.37h9.9a1.25,1.25,0,0,0,.91-.37,1.3,1.3,0,0,0,.38-.91V129.3a1.27,1.27,0,0,0-.38-.9,1.22,1.22,0,0,0-.91-.38v1.28h-1.28v8.63h-7.34v-7.35h8.62V129.3h0Z"/><path class="cls-2" d="M173.46,129.3V128h-9.9a1.28,1.28,0,0,0-1.28,1.28v9.91a1.26,1.26,0,0,0,1.28,1.28h9.9a1.28,1.28,0,0,0,1.29-1.28V129.3a1.27,1.27,0,0,0-.38-.9,1.25,1.25,0,0,0-.91-.38v1.28h-1.28v8.63h-7.34v-7.35h8.62V129.3h0Z"/><path class="cls-2" d="M192.75,129.3V128h-9.91a1.25,1.25,0,0,0-.91.38,1.31,1.31,0,0,0-.37.9v9.91a1.33,1.33,0,0,0,.37.91,1.29,1.29,0,0,0,.91.37h9.91a1.26,1.26,0,0,0,1.28-1.28V129.3a1.28,1.28,0,0,0-1.28-1.28v1.28h-1.28v8.63h-7.34v-7.35h8.62V129.3h0Z"/><path class="cls-2" d="M115.61,146.81v-1.28H105.7a1.28,1.28,0,0,0-1.28,1.28v9.91a1.25,1.25,0,0,0,.38.9,1.27,1.27,0,0,0,.9.38h9.91a1.26,1.26,0,0,0,.9-.38,1.29,1.29,0,0,0,.38-.9v-9.91a1.3,1.3,0,0,0-.38-.91,1.25,1.25,0,0,0-.9-.37v1.28h-1.28v8.62H107v-7.34h8.63v-1.28h0Z"/><path class="cls-2" d="M134.89,146.81v-1.28H125a1.28,1.28,0,0,0-1.29,1.28v9.91A1.3,1.3,0,0,0,125,158h9.9a1.3,1.3,0,0,0,.91-.38,1.28,1.28,0,0,0,.37-.9v-9.91a1.26,1.26,0,0,0-1.28-1.28v1.28h-1.28v8.62h-7.34v-7.34h8.62v-1.28h0Z"/><path class="cls-2" d="M154.17,146.81v-1.28h-9.9a1.26,1.26,0,0,0-.9.37,1.3,1.3,0,0,0-.38.91v9.91a1.29,1.29,0,0,0,.38.9,1.27,1.27,0,0,0,.9.38h9.9a1.26,1.26,0,0,0,.91-.38,1.29,1.29,0,0,0,.38-.9v-9.91a1.3,1.3,0,0,0-.38-.91,1.25,1.25,0,0,0-.91-.37v1.28h-1.28v8.62h-7.34v-7.34h8.62v-1.28h0Z"/><path class="cls-2" d="M173.46,146.81v-1.28h-9.9a1.26,1.26,0,0,0-1.28,1.28v9.91a1.28,1.28,0,0,0,.37.9,1.3,1.3,0,0,0,.91.38h9.9a1.3,1.3,0,0,0,1.29-1.28v-9.91a1.28,1.28,0,0,0-1.29-1.28v1.28h-1.28v8.62h-7.34v-7.34h8.62v-1.28h0Z"/><path class="cls-2" d="M192.75,146.81v-1.28h-9.91a1.29,1.29,0,0,0-.91.37,1.33,1.33,0,0,0-.37.91v9.91a1.32,1.32,0,0,0,.37.9,1.3,1.3,0,0,0,.91.38h9.91a1.3,1.3,0,0,0,.91-.38,1.28,1.28,0,0,0,.37-.9v-9.91a1.26,1.26,0,0,0-1.28-1.28v1.28h-1.28v8.62h-7.34v-7.34h8.62v-1.28h0Z"/><polyline class="cls-2" points="90.51 102.52 210.06 102.52 210.06 99.33 90.51 99.33"/></g></svg>