<svg xmlns="http://www.w3.org/2000/svg" xmlns:xlink="http://www.w3.org/1999/xlink" viewBox="0 0 300 260"><defs><style>.cls-1{fill:none;}.cls-2{fill:#fff;}.cls-3{clip-path:url(#clip-path);}.cls-4{fill:#fefefe;}.cls-5{fill:#fdfefe;}.cls-6{fill:#fdfdfd;}.cls-7{fill:#fcfcfc;}.cls-8{fill:#fbfbfb;}.cls-9{fill:#fafbfb;}.cls-10{fill:#fafafa;}.cls-11{fill:#f9f9f9;}.cls-12{fill:#f8f8f8;}.cls-13{fill:#f7f7f7;}.cls-14{fill:#f6f7f7;}.cls-15{fill:#f6f6f6;}.cls-16{fill:#f5f5f6;}.cls-17{fill:#f5f5f5;}.cls-18{fill:#f4f4f4;}.cls-19{fill:#f3f4f4;}.cls-20{fill:#f3f3f3;}.cls-21{fill:#f2f2f3;}.cls-22{fill:#f1f2f2;}.cls-23{fill:#f0f1f1;}.cls-24{fill:#f0f0f0;}.cls-25{fill:#efeff0;}.cls-26{fill:#eeefef;}.cls-27{fill:#edeeee;}.cls-28{fill:#eceded;}.cls-29{fill:#ececed;}.cls-30{fill:#ebebec;}.cls-31{fill:#eaeaeb;}.cls-32{fill:#e9eaea;}.cls-33{fill:#e8e9e9;}.cls-34{fill:#e7e8e8;}.cls-35{fill:#e6e7e7;}.cls-36{fill:#e5e6e6;}.cls-37{fill:#e4e5e5;}.cls-38{fill:#e3e4e4;}.cls-39{fill:#e2e3e3;}.cls-40{fill:#e1e2e2;}.cls-41{fill:#e0e1e1;}.cls-42{fill:#dfe0e0;}.cls-43{fill:#dedfdf;}.cls-44{fill:#dddede;}.cls-45{fill:#dbdcdd;}.cls-46{fill:#dadbdc;}.cls-47{fill:#d9dadb;}.cls-48{fill:#d8d9da;}.cls-49{fill:#d7d8d9;}.cls-50{fill:#d5d7d7;}.cls-51{fill:#d4d5d6;}.cls-52{fill:#d3d4d5;}.cls-53{fill:#d2d3d4;}.cls-54{fill:#d0d2d3;}.cls-55{fill:#cfd0d1;}.cls-56{fill:#cecfd0;}.cls-57{fill:#cccecf;}.cls-58{fill:#cbcccd;}.cls-59{fill:#c9cbcc;}.cls-60{fill:#c8cacb;}.cls-61{fill:#c7c8c9;}.cls-62{fill:#c5c7c8;}.cls-63{fill:#c4c5c6;}.cls-64{fill:#c2c4c5;}.cls-65{fill:#c1c2c4;}.cls-66{fill:#bfc1c2;}.cls-67{fill:#bebfc1;}.cls-68{fill:#bcbebf;}.cls-69{fill:#babcbe;}.cls-70{fill:#b9bbbc;}.cls-71{fill:#b7b9bb;}.cls-72{fill:#b6b8b9;}.cls-73{fill:#b4b6b7;}.cls-74{fill:#b2b4b6;}.cls-75{fill:#b1b3b4;}.cls-76{fill:#afb1b3;}.cls-77{fill:#adafb1;}.cls-78{fill:#abaeaf;}.cls-79{fill:#aaacae;}.cls-80{fill:#a8aaac;}.cls-81{fill:#a6a9aa;}.cls-82{fill:#a4a7a8;}.cls-83{fill:#a2a5a7;}.cls-84{fill:#a1a3a5;}.cls-85{fill:#9fa1a3;}.cls-86{fill:#9da0a1;}.cls-87{fill:#9b9ea0;}.cls-88{fill:#999c9e;}.cls-89{fill:#979a9c;}.cls-90{fill:#95989a;}.cls-91{fill:url(#radial-gradient);}.cls-92{fill:url(#linear-gradient);}</style><clipPath id="clip-path"><path class="cls-1" d="M298.76,230.23c0,15.18-66.67,27.51-148.88,27.51S1,245.41,1,230.23s66.65-27.54,148.88-27.54S298.76,215,298.76,230.23Z"/></clipPath><radialGradient id="radial-gradient" cx="149" cy="115.66" r="113.67" gradientUnits="userSpaceOnUse"><stop offset="0.52" stop-color="#676f8e"/><stop offset="0.65" stop-color="#555c7b"/><stop offset="0.79" stop-color="#474e6d"/><stop offset="0.83" stop-color="#4c5472"/><stop offset="0.88" stop-color="#5b6482"/><stop offset="0.93" stop-color="#747e9c"/><stop offset="0.97" stop-color="#8e99b6"/></radialGradient><linearGradient id="linear-gradient" x1="62.98" y1="68.52" x2="223.25" y2="68.52" gradientUnits="userSpaceOnUse"><stop offset="0" stop-color="#8f9ab7"/><stop offset="0.77" stop-color="#525979"/></linearGradient></defs><title>grey_icon1Artboard 27 copy</title><g id="icons_elements"><path class="cls-2" d="M222.5,129.59a2,2,0,0,0-2.79.56l-3.36,5.08a2,2,0,1,0,3.35,2.22l3.37-5.07A2,2,0,0,0,222.5,129.59Z"/><path class="cls-2" d="M211.55,125.25l-3.36,5.07a2,2,0,0,0,3.36,2.23l3.36-5.08a2,2,0,0,0-3.36-2.22Z"/><path class="cls-2" d="M204.13,131.76c-1.86-.23-2.52.18-2.79.56-.74,1,.67,2.65,0,4.94a5.17,5.17,0,0,1-.82,1.66L199,141.55a5.78,5.78,0,0,0-.71,4.28,5.68,5.68,0,0,0,1.58,2.79A62,62,0,0,1,87.6,112.25c0-37.22,33.76-61.63,62-62,21.21-.3,36.82,12.95,40,15.69,11.17,9.47,20.06,23.88,17.27,29.6A12.54,12.54,0,0,1,205.31,98a14.14,14.14,0,0,1-4.11,3.29,17.35,17.35,0,0,1-5.76,1.65,41.92,41.92,0,0,1-7,.62,7.87,7.87,0,0,0-1.35,0,9.91,9.91,0,0,0-2,.5,7.12,7.12,0,0,0-3.65,2.87,6.85,6.85,0,0,0-.26,5.73,32.5,32.5,0,0,1,2.46,28.16h-12V137a3.67,3.67,0,0,0-2.51-3.48A4.43,4.43,0,0,0,167,133H135a4.51,4.51,0,0,0-4.51,4.51h0c0,.07,0,.14,0,.22s0,.07,0,.11v3H118.36a40.49,40.49,0,0,1,4.71-35.47.86.86,0,0,0,0-.15,31.51,31.51,0,0,1,.83-9.72,30.92,30.92,0,0,1,1.72-5.24,18.62,18.62,0,0,1,4-5.45s.56-.46,1.18-.88c5-3.36,21-3.23,21-3.23,11.72.09,15.31,0,18.91,2.47a17,17,0,0,1,4.11,4.11,15.24,15.24,0,0,1,2.5,7.52,4.11,4.11,0,0,0,5.34,2.3c1.74-.69,2.76-2.95,2.31-5.34a21.45,21.45,0,0,0-2.75-7,20.72,20.72,0,0,0-3.17-3.89,23.78,23.78,0,0,0-1.75-1.77c-.14-.12-.3-.26-.53-.44a9.14,9.14,0,0,0-1.27-.84,31.15,31.15,0,0,0-6.44-2.93c-7.38-2.33-21.38-1.64-21.38-1.64a66.6,66.6,0,0,0-13.15,1.64c-7.65,1.93-10.31,4.4-11.52,5.76a15.14,15.14,0,0,0-1.34,1.75c-2.64,3.19-4.4,7.74-5.24,9.76A31.85,31.85,0,0,0,114.74,98a3.32,3.32,0,0,0-.71.15,15,15,0,0,0-2.26-.18c-5.22,0-9.46,2.65-9.46,5.91,0,2.91,3.37,5.32,7.8,5.81l0,.14c-.94,4-1.44,5.14-2,7.3-1.17,5-.89,8.75-.39,15.13a51.32,51.32,0,0,0,3.83,15.07,4.3,4.3,0,0,0,1.17,1.59,4.65,4.65,0,0,0,2.31,1h18.33a4.26,4.26,0,0,0,.8-.08h0a3.7,3.7,0,0,0,3.7-3.7V142h26.32v3.2s0,.08,0,.12a4.51,4.51,0,0,0,4.51,4.51h16.49a4.48,4.48,0,0,0,3.49-1.67,11.54,11.54,0,0,0,1.51-2.25,40.05,40.05,0,0,0,4-12.62,31.34,31.34,0,0,0-.39-13.3c-.52-1.91-1-2.94-2-6.42-.08-.29-.15-.58-.22-.86,1.59-.31,3.6-.75,5.9-1.39a39.37,39.37,0,0,0,7.76-2.69c2.59-1.32,6.75-3.43,9-8.22s1.33-9.21.83-11.52a12.28,12.28,0,0,0-.94-2.81l0-.09A69.91,69.91,0,1,0,206.65,153a5.67,5.67,0,0,0,7.75-1.84l2.14-3.44a2.58,2.58,0,0,1,.31-.57c1.13-1.48,3.64-.59,4.37-1.62.26-.38.36-1.13-.57-2.79Z"/><path class="cls-2" d="M157.61,101.26c-8.17,1.94-13.58,6.12-17.15,8.87a48.42,48.42,0,0,0-12.24,14.44A39.7,39.7,0,0,1,142,112a40.89,40.89,0,0,1,14.8-4.93c7.62-.83,8.22-.83,8.22-.83,3.4,0,5.56.51,6.58-.82a3.14,3.14,0,0,0,0-3.29C169.42,98.46,159.39,100.84,157.61,101.26Z"/><g class="cls-3"><rect class="cls-2" x="1" y="202.69" width="297.76" height="55.06"/><ellipse class="cls-2" cx="149.88" cy="230.21" rx="126.84" ry="23.44"/><ellipse class="cls-2" cx="149.88" cy="230.21" rx="125.64" ry="23.21"/><ellipse class="cls-2" cx="149.88" cy="230.21" rx="124.45" ry="22.99"/><ellipse class="cls-2" cx="149.88" cy="230.21" rx="123.25" ry="22.77"/><ellipse class="cls-2" cx="149.88" cy="230.21" rx="122.05" ry="22.55"/><ellipse class="cls-2" cx="149.88" cy="230.21" rx="120.86" ry="22.33"/><ellipse class="cls-2" cx="149.88" cy="230.21" rx="119.66" ry="22.11"/><ellipse class="cls-4" cx="149.88" cy="230.21" rx="118.46" ry="21.89"/><ellipse class="cls-4" cx="149.88" cy="230.21" rx="117.27" ry="21.67"/><ellipse class="cls-4" cx="149.88" cy="230.21" rx="116.07" ry="21.45"/><ellipse class="cls-4" cx="149.88" cy="230.21" rx="114.87" ry="21.22"/><ellipse class="cls-4" cx="149.88" cy="230.21" rx="113.68" ry="21"/><ellipse class="cls-5" cx="149.88" cy="230.21" rx="112.48" ry="20.78"/><ellipse class="cls-6" cx="149.88" cy="230.21" rx="111.28" ry="20.56"/><ellipse class="cls-6" cx="149.88" cy="230.21" rx="110.09" ry="20.34"/><ellipse class="cls-6" cx="149.88" cy="230.21" rx="108.89" ry="20.12"/><ellipse class="cls-7" cx="149.88" cy="230.21" rx="107.69" ry="19.9"/><ellipse class="cls-7" cx="149.88" cy="230.21" rx="106.5" ry="19.68"/><ellipse class="cls-7" cx="149.88" cy="230.21" rx="105.3" ry="19.46"/><ellipse class="cls-8" cx="149.88" cy="230.21" rx="104.1" ry="19.23"/><ellipse class="cls-8" cx="149.88" cy="230.21" rx="102.91" ry="19.01"/><ellipse class="cls-9" cx="149.88" cy="230.21" rx="101.71" ry="18.79"/><ellipse class="cls-10" cx="149.88" cy="230.21" rx="100.51" ry="18.57"/><ellipse class="cls-10" cx="149.88" cy="230.21" rx="99.32" ry="18.35"/><ellipse class="cls-11" cx="149.88" cy="230.21" rx="98.12" ry="18.13"/><ellipse class="cls-11" cx="149.88" cy="230.21" rx="96.92" ry="17.91"/><ellipse class="cls-12" cx="149.88" cy="230.21" rx="95.73" ry="17.69"/><ellipse class="cls-12" cx="149.88" cy="230.21" rx="94.53" ry="17.47"/><ellipse class="cls-13" cx="149.88" cy="230.21" rx="93.34" ry="17.24"/><ellipse class="cls-14" cx="149.88" cy="230.21" rx="92.14" ry="17.02"/><ellipse class="cls-15" cx="149.88" cy="230.21" rx="90.94" ry="16.8"/><ellipse class="cls-16" cx="149.88" cy="230.21" rx="89.75" ry="16.58"/><ellipse class="cls-17" cx="149.88" cy="230.21" rx="88.55" ry="16.36"/><ellipse class="cls-18" cx="149.88" cy="230.21" rx="87.35" ry="16.14"/><ellipse class="cls-19" cx="149.88" cy="230.21" rx="86.16" ry="15.92"/><ellipse class="cls-20" cx="149.88" cy="230.21" rx="84.96" ry="15.7"/><ellipse class="cls-21" cx="149.88" cy="230.21" rx="83.76" ry="15.48"/><ellipse class="cls-22" cx="149.88" cy="230.21" rx="82.57" ry="15.26"/><ellipse class="cls-23" cx="149.88" cy="230.21" rx="81.37" ry="15.03"/><ellipse class="cls-24" cx="149.88" cy="230.21" rx="80.17" ry="14.81"/><ellipse class="cls-25" cx="149.88" cy="230.21" rx="78.98" ry="14.59"/><ellipse class="cls-26" cx="149.88" cy="230.21" rx="77.78" ry="14.37"/><ellipse class="cls-27" cx="149.88" cy="230.21" rx="76.58" ry="14.15"/><ellipse class="cls-28" cx="149.88" cy="230.21" rx="75.39" ry="13.93"/><ellipse class="cls-29" cx="149.88" cy="230.21" rx="74.19" ry="13.71"/><ellipse class="cls-30" cx="149.88" cy="230.21" rx="72.99" ry="13.49"/><ellipse class="cls-31" cx="149.88" cy="230.21" rx="71.8" ry="13.27"/><ellipse class="cls-32" cx="149.88" cy="230.21" rx="70.6" ry="13.04"/><ellipse class="cls-33" cx="149.88" cy="230.21" rx="69.4" ry="12.82"/><ellipse class="cls-34" cx="149.88" cy="230.21" rx="68.21" ry="12.6"/><ellipse class="cls-35" cx="149.88" cy="230.21" rx="67.01" ry="12.38"/><ellipse class="cls-36" cx="149.88" cy="230.21" rx="65.81" ry="12.16"/><ellipse class="cls-37" cx="149.88" cy="230.21" rx="64.62" ry="11.94"/><ellipse class="cls-38" cx="149.88" cy="230.21" rx="63.42" ry="11.72"/><ellipse class="cls-39" cx="149.88" cy="230.21" rx="62.22" ry="11.5"/><ellipse class="cls-40" cx="149.88" cy="230.21" rx="61.03" ry="11.28"/><ellipse class="cls-41" cx="149.88" cy="230.21" rx="59.83" ry="11.05"/><ellipse class="cls-42" cx="149.88" cy="230.21" rx="58.63" ry="10.83"/><ellipse class="cls-43" cx="149.88" cy="230.21" rx="57.44" ry="10.61"/><ellipse class="cls-44" cx="149.88" cy="230.21" rx="56.24" ry="10.39"/><ellipse class="cls-45" cx="149.88" cy="230.21" rx="55.04" ry="10.17"/><ellipse class="cls-46" cx="149.88" cy="230.21" rx="53.85" ry="9.95"/><ellipse class="cls-47" cx="149.88" cy="230.21" rx="52.65" ry="9.73"/><ellipse class="cls-48" cx="149.88" cy="230.21" rx="51.45" ry="9.51"/><ellipse class="cls-49" cx="149.88" cy="230.21" rx="50.26" ry="9.29"/><ellipse class="cls-50" cx="149.88" cy="230.21" rx="49.06" ry="9.06"/><ellipse class="cls-51" cx="149.88" cy="230.21" rx="47.86" ry="8.84"/><ellipse class="cls-52" cx="149.88" cy="230.21" rx="46.67" ry="8.62"/><ellipse class="cls-53" cx="149.88" cy="230.21" rx="45.47" ry="8.4"/><ellipse class="cls-54" cx="149.88" cy="230.21" rx="44.27" ry="8.18"/><ellipse class="cls-55" cx="149.88" cy="230.21" rx="43.08" ry="7.96"/><ellipse class="cls-56" cx="149.88" cy="230.21" rx="41.88" ry="7.74"/><ellipse class="cls-57" cx="149.88" cy="230.21" rx="40.68" ry="7.52"/><ellipse class="cls-58" cx="149.88" cy="230.21" rx="39.49" ry="7.3"/><ellipse class="cls-59" cx="149.88" cy="230.21" rx="38.29" ry="7.07"/><ellipse class="cls-60" cx="149.88" cy="230.21" rx="37.09" ry="6.85"/><ellipse class="cls-61" cx="149.88" cy="230.21" rx="35.9" ry="6.63"/><ellipse class="cls-62" cx="149.88" cy="230.21" rx="34.7" ry="6.41"/><ellipse class="cls-63" cx="149.88" cy="230.21" rx="33.5" ry="6.19"/><ellipse class="cls-64" cx="149.88" cy="230.21" rx="32.31" ry="5.97"/><ellipse class="cls-65" cx="149.88" cy="230.21" rx="31.11" ry="5.75"/><ellipse class="cls-66" cx="149.88" cy="230.21" rx="29.92" ry="5.53"/><ellipse class="cls-67" cx="149.88" cy="230.21" rx="28.72" ry="5.31"/><ellipse class="cls-68" cx="149.88" cy="230.21" rx="27.52" ry="5.09"/><ellipse class="cls-69" cx="149.88" cy="230.21" rx="26.33" ry="4.86"/><ellipse class="cls-70" cx="149.88" cy="230.21" rx="25.13" ry="4.64"/><ellipse class="cls-71" cx="149.88" cy="230.21" rx="23.93" ry="4.42"/><ellipse class="cls-72" cx="149.88" cy="230.21" rx="22.74" ry="4.2"/><ellipse class="cls-73" cx="149.88" cy="230.21" rx="21.54" ry="3.98"/><ellipse class="cls-74" cx="149.88" cy="230.21" rx="20.34" ry="3.76"/><ellipse class="cls-75" cx="149.88" cy="230.21" rx="19.15" ry="3.54"/><ellipse class="cls-76" cx="149.88" cy="230.21" rx="17.95" ry="3.32"/><ellipse class="cls-77" cx="149.88" cy="230.21" rx="16.75" ry="3.1"/><ellipse class="cls-78" cx="149.88" cy="230.21" rx="15.56" ry="2.87"/><ellipse class="cls-79" cx="149.88" cy="230.21" rx="14.36" ry="2.65"/><ellipse class="cls-80" cx="149.88" cy="230.21" rx="13.16" ry="2.43"/><ellipse class="cls-81" cx="149.88" cy="230.21" rx="11.97" ry="2.21"/><ellipse class="cls-82" cx="149.88" cy="230.21" rx="10.77" ry="1.99"/><ellipse class="cls-83" cx="149.88" cy="230.21" rx="9.57" ry="1.77"/><ellipse class="cls-84" cx="149.88" cy="230.21" rx="8.38" ry="1.55"/><ellipse class="cls-85" cx="149.88" cy="230.21" rx="7.18" ry="1.33"/><ellipse class="cls-86" cx="149.88" cy="230.21" rx="5.98" ry="1.11"/><ellipse class="cls-87" cx="149.88" cy="230.21" rx="4.79" ry="0.88"/><ellipse class="cls-88" cx="149.88" cy="230.21" rx="3.59" ry="0.66"/><ellipse class="cls-89" cx="149.88" cy="230.21" rx="2.39" ry="0.44"/><ellipse class="cls-90" cx="149.88" cy="230.21" rx="1.2" ry="0.22"/></g><path class="cls-91" d="M262.68,115.63A113.68,113.68,0,1,1,149,2,113.73,113.73,0,0,1,262.68,115.63Z"/><path class="cls-92" d="M152.93,9.75a111.24,111.24,0,0,0-20.44,1.92C88.63,19.87,57.85,52,63.7,83.41c4.92,26.4,34.26,43.89,69.58,43.89a111.48,111.48,0,0,0,20.47-1.92c43.86-8.19,74.64-40.29,68.78-71.69C217.61,27.28,188.28,9.75,152.93,9.75Z"/><path class="cls-2" d="M208.67,71.12H91.37V171.56h117.3V139.62h10.65V103.06H208.67Zm-3.73,96.72H95.09v-93H204.94v28.21H174.33v36.56h30.61Zm10.65-31.94H178.05V106.79h37.54Z"/><path class="cls-2" d="M208.67,71.12v-.5H90.87V172.06h118.3V140.13h10.64V102.56H209.17V70.62h-.5v.5h-.51v32.45h10.65v35.55H208.16v31.94H91.87V71.63h116.8v-.51h0Zm-3.73,96.72v-.51H95.6v-92H204.44v27.22H173.82v37.57h30.62v27.71h.5v0h.5V139.12H174.82V103.57h30.62V74.34H94.59v94H205.44v-.5Zm10.65-31.94v-.51h-37v-28.1h36.54V135.9h.5v0h.5V106.29H177.55V136.4h38.54v-.5Z"/><path class="cls-2" d="M189.5,126.75a5.41,5.41,0,1,0-5.41-5.41A5.41,5.41,0,0,0,189.5,126.75Zm0-7.09a1.69,1.69,0,1,1-1.69,1.68A1.68,1.68,0,0,1,189.5,119.66Z"/><path class="cls-2" d="M189.5,126.75v.5a5.91,5.91,0,1,0-5.91-5.91,5.93,5.93,0,0,0,5.91,5.91v-1a4.91,4.91,0,1,1,4.91-4.91,4.93,4.93,0,0,1-4.91,4.91Zm0-7.09v.5a1.19,1.19,0,1,1-1.18,1.18,1.18,1.18,0,0,1,1.18-1.18v-1a2.19,2.19,0,1,0,2.18,2.19,2.2,2.2,0,0,0-2.18-2.19Z"/></g></svg>